<svg width="50" height="50" viewBox="0 0 50 50" fill="none" xmlns="http://www.w3.org/2000/svg">
<path fill-rule="evenodd" clip-rule="evenodd" d="M3.532 37.1615L0 50L13.1973 46.5548C16.8337 48.529 20.9276 49.5694 25.0937 49.5711H25.1044C38.8249 49.5711 49.9939 38.4552 50 24.7951C50.0023 18.1743 47.4145 11.9496 42.715 7.2664C38.0141 2.58321 31.7637 0.00323373 25.1044 0C11.3817 0 0.214472 11.114 0.208889 24.7751C0.207491 29.1417 1.35358 33.4044 3.532 37.1615ZM4.41233 24.7764C4.41653 13.4224 13.6986 4.18509 25.1124 4.18509C30.6396 4.18741 35.8343 6.3319 39.7412 10.2241C43.6481 14.1163 45.7981 19.2906 45.7961 24.7931C45.7915 36.1481 36.5094 45.3863 25.1044 45.3863H25.0965C21.3827 45.3845 17.7411 44.3921 14.5649 42.5154L13.8087 42.0693L5.97707 44.1135L8.06794 36.5148L7.57556 35.7359C5.50439 32.4569 4.41064 28.6672 4.41233 24.7764Z" fill="white"/>
<path fill-rule="evenodd" clip-rule="evenodd" d="M18.8826 14.4172C18.4163 13.3862 17.9258 13.3653 17.4828 13.3472C17.1201 13.3319 16.7051 13.3328 16.2906 13.3328C15.8756 13.3328 15.2018 13.4879 14.632 14.1076C14.0618 14.7273 12.4546 16.2252 12.4546 19.2721C12.4546 22.3191 14.6838 25.2629 14.9943 25.6765C15.3053 26.0897 19.2975 32.5419 25.6206 35.0239C30.875 37.0867 31.9442 36.6764 33.0851 36.5733C34.2256 36.4703 36.7654 35.0754 37.2834 33.6295C37.8019 32.1835 37.8019 30.9446 37.6467 30.6856C37.4909 30.427 37.0764 30.2725 36.4539 29.9628C35.8319 29.6532 32.7737 28.1548 32.2034 27.9483C31.6332 27.7417 31.2187 27.6387 30.8037 28.2583C30.3892 28.878 29.1978 30.2725 28.8346 30.6856C28.4719 31.0992 28.1091 31.1507 27.4866 30.8411C26.8646 30.5305 24.8611 29.8774 22.4845 27.7677C20.6353 26.1263 19.3871 24.0992 19.0238 23.4795C18.6611 22.8598 18.9851 22.5247 19.2971 22.216C19.5764 21.9384 19.9191 21.4928 20.2305 21.1312C20.5406 20.7696 20.6446 20.5115 20.8516 20.0989C21.0591 19.6853 20.9556 19.3237 20.7999 19.014C20.6446 18.7044 19.4356 15.6417 18.8826 14.4172Z" fill="white"/>
</svg>
